<svg width="35" height="35" viewBox="0 0 35 35" fill="none" xmlns="http://www.w3.org/2000/svg">
<path d="M17.5 35C27.165 35 35 27.165 35 17.5C35 7.83502 27.165 0 17.5 0C7.83502 0 0 7.83502 0 17.5C0 27.165 7.83502 35 17.5 35Z" fill="#3C5A99"/>
<path d="M18.8604 26.2505V18.2798H21.5469L21.9502 15.1592H18.8604V13.1733C18.8604 12.271 19.1099 11.6592 20.4019 11.6592H22.0391V8.87695C21.7554 8.83936 20.7778 8.75391 19.6396 8.75391C17.2642 8.75391 15.6372 10.2031 15.6372 12.8657V15.1626H12.9609V18.2832H15.6372V26.2505H18.8604Z" fill="white"/>
</svg>
