<svg width="35" height="35" viewBox="0 0 35 35" fill="none" xmlns="http://www.w3.org/2000/svg">
<path d="M17.5 35C27.165 35 35 27.165 35 17.5C35 7.83502 27.165 0 17.5 0C7.83502 0 0 7.83502 0 17.5C0 27.165 7.83502 35 17.5 35Z" fill="#E4405F"/>
<path d="M17.5005 8.75C15.125 8.75 14.8276 8.76025 13.8945 8.80127C12.9614 8.8457 12.3291 8.99268 11.772 9.20801C11.1978 9.43018 10.709 9.73096 10.2202 10.2163C9.73145 10.7017 9.43408 11.1904 9.21191 11.7681C8.99658 12.3252 8.84961 12.9609 8.80518 13.8906C8.76074 14.8237 8.75391 15.1211 8.75391 17.4966C8.75391 19.8721 8.76416 20.1694 8.80518 21.1025C8.84961 22.0322 8.99658 22.668 9.21191 23.2251C9.43408 23.7993 9.73486 24.2881 10.2202 24.7769C10.7056 25.2622 11.1943 25.563 11.772 25.7852C12.3291 26.0005 12.9648 26.1475 13.8945 26.1919C14.8276 26.2363 15.125 26.2432 17.5005 26.2432C19.876 26.2432 20.1733 26.2329 21.1064 26.1919C22.0361 26.1475 22.6719 26.0005 23.229 25.7852C23.8032 25.563 24.292 25.2622 24.7808 24.7769C25.2661 24.2915 25.5669 23.8027 25.7891 23.2251C26.0044 22.668 26.1514 22.0322 26.1958 21.1025C26.2402 20.1694 26.2471 19.8721 26.2471 17.4966C26.2471 15.1211 26.2368 14.8237 26.1958 13.8906C26.1514 12.9609 26.0044 12.3252 25.7891 11.7681C25.5669 11.1938 25.2661 10.7051 24.7808 10.2163C24.2954 9.73096 23.8066 9.43018 23.229 9.20801C22.6719 8.99268 22.0361 8.8457 21.1064 8.80127C20.1733 8.76025 19.876 8.75 17.5005 8.75ZM17.5005 10.3257C19.835 10.3257 20.1152 10.3359 21.0381 10.377C21.8926 10.418 22.354 10.5581 22.6616 10.6812C23.0718 10.8384 23.3623 11.0298 23.6699 11.334C23.9741 11.6416 24.1655 11.9321 24.3228 12.3423C24.4424 12.6499 24.5859 13.1113 24.6235 13.9658C24.6646 14.8887 24.6748 15.1655 24.6748 17.5034C24.6748 19.8413 24.6645 20.1182 24.6201 21.041C24.5757 21.8955 24.4321 22.3569 24.3125 22.6645C24.1484 23.0747 23.9639 23.3652 23.6562 23.6728C23.352 23.977 23.0547 24.1685 22.6514 24.3257C22.3438 24.4453 21.8755 24.5889 21.021 24.6265C20.0913 24.6675 19.8179 24.6777 17.4766 24.6777C15.1353 24.6777 14.8618 24.6675 13.9321 24.623C13.0776 24.5786 12.6094 24.4351 12.3018 24.3154C11.8882 24.1514 11.6011 23.9668 11.2969 23.6592C10.9893 23.355 10.7944 23.0576 10.6406 22.6543C10.521 22.3467 10.3774 21.8784 10.333 21.0239C10.2988 20.1045 10.2886 19.8208 10.2886 17.4932C10.2886 15.1621 10.2988 14.8784 10.333 13.9487C10.3774 13.0942 10.5176 12.626 10.6406 12.3184C10.7944 11.9014 10.9893 11.6177 11.2969 11.3101C11.6011 11.0059 11.8882 10.8076 12.3018 10.6538C12.6094 10.5342 13.0674 10.3906 13.9219 10.3462C14.8516 10.312 15.125 10.3018 17.4663 10.3018L17.5005 10.3257ZM17.5005 13.0054C15.019 13.0054 13.0059 15.0186 13.0059 17.5C13.0059 19.9814 15.019 21.9946 17.5005 21.9946C19.9819 21.9946 21.9951 19.9814 21.9951 17.5C21.9951 15.0186 19.9819 13.0054 17.5005 13.0054ZM17.5005 20.4155C15.8906 20.4155 14.585 19.1099 14.585 17.5C14.585 15.8901 15.8906 14.5845 17.5005 14.5845C19.1104 14.5845 20.416 15.8901 20.416 17.5C20.416 19.1099 19.1104 20.4155 17.5005 20.4155ZM23.2222 12.8311C23.2222 13.4121 22.7505 13.8804 22.1729 13.8804C21.5918 13.8804 21.1235 13.4087 21.1235 12.8311C21.1235 12.2534 21.5952 11.7817 22.1729 11.7817C22.7505 11.7783 23.2222 12.25 23.2222 12.8311Z" fill="white"/>
</svg>
