<svg width="35" height="35" viewBox="0 0 35 35" fill="none" xmlns="http://www.w3.org/2000/svg">
<path d="M17.5 35C27.165 35 35 27.165 35 17.5C35 7.83502 27.165 0 17.5 0C7.83502 0 0 7.83502 0 17.5C0 27.165 7.83502 35 17.5 35Z" fill="#0A66C2"/>
<path d="M23.6899 23.6934H21.0923V19.626C21.0923 18.6553 21.0718 17.4077 19.7388 17.4077C18.3853 17.4077 18.1768 18.4639 18.1768 19.5542V23.6934H15.5791V15.3262H18.0742V16.4678H18.1084C18.457 15.8115 19.3047 15.1177 20.5693 15.1177C23.2012 15.1177 23.6865 16.8506 23.6865 19.103L23.6899 23.6934ZM12.6499 14.1812C11.8125 14.1812 11.1426 13.5044 11.1426 12.6738C11.1426 11.8433 11.8159 11.1665 12.6499 11.1665C13.4839 11.1665 14.1572 11.8433 14.1572 12.6738C14.1572 13.5044 13.4805 14.1812 12.6499 14.1812ZM13.9521 23.6934H11.3477V15.3262H13.9521V23.6934ZM24.9888 8.75H10.0454C9.33105 8.75 8.75 9.31396 8.75 10.0146V25.0195C8.75 25.7168 9.32764 26.2842 10.0454 26.2842H24.9854C25.6997 26.2842 26.2842 25.7202 26.2842 25.0195V10.0146C26.2842 9.31396 25.6997 8.75 24.9888 8.75Z" fill="white"/>
</svg>
