<svg width="35" height="35" viewBox="0 0 35 35" fill="none" xmlns="http://www.w3.org/2000/svg">
<path d="M17.5 35C27.165 35 35 27.165 35 17.5C35 7.83502 27.165 0 17.5 0C7.83502 0 0 7.83502 0 17.5C0 27.165 7.83502 35 17.5 35Z" fill="#BD081C"/>
<path d="M17.4897 8.75C12.6636 8.75 8.75 12.6636 8.75 17.4897C8.75 21.1948 11.0537 24.3564 14.3042 25.6279C14.229 24.9375 14.1606 23.8745 14.335 23.1191C14.4956 22.4355 15.3604 18.7749 15.3604 18.7749C15.3604 18.7749 15.0972 18.2485 15.0972 17.4761C15.0972 16.2627 15.8013 15.3535 16.6797 15.3535C17.4248 15.3535 17.7871 15.9141 17.7871 16.584C17.7871 17.3359 17.312 18.457 17.0625 19.4961C16.854 20.3677 17.5 21.0752 18.3579 21.0752C19.9097 21.0752 21.106 19.438 21.106 17.0728C21.106 14.9878 19.6021 13.5215 17.4556 13.5215C14.9707 13.5215 13.5112 15.3911 13.5112 17.312C13.5112 18.064 13.7983 18.874 14.1606 19.3115C14.2324 19.4004 14.2427 19.4756 14.2222 19.5645C14.1572 19.8379 14.0068 20.4395 13.9795 20.5591C13.9419 20.7231 13.853 20.7573 13.6855 20.6787C12.5952 20.1763 11.9116 18.5801 11.9116 17.2915C11.9116 14.5366 13.9146 12.0039 17.688 12.0039C20.7197 12.0039 23.0781 14.1675 23.0781 17.0522C23.0781 20.0669 21.1777 22.4937 18.5322 22.4937C17.647 22.4937 16.8164 22.0356 16.5225 21.4888L15.9756 23.5669C15.7808 24.3291 15.2441 25.2827 14.8818 25.8604C15.7021 26.1133 16.5635 26.25 17.4692 26.25C22.2852 26.25 26.209 22.3364 26.209 17.5103C26.209 12.6807 22.2886 8.77051 17.4692 8.77051L17.4897 8.75Z" fill="white"/>
</svg>
