<svg width="35" height="35" viewBox="0 0 35 35" fill="none" xmlns="http://www.w3.org/2000/svg">
<path d="M17.5 35C27.165 35 35 27.165 35 17.5C35 7.83502 27.165 0 17.5 0C7.83502 0 0 7.83502 0 17.5C0 27.165 7.83502 35 17.5 35Z" fill="#1DA1F2"/>
<path d="M26.5898 12.126C25.9473 12.4097 25.2603 12.6011 24.5356 12.6899C25.2739 12.2456 25.8413 11.5449 26.1079 10.7109C25.4175 11.1143 24.6484 11.4082 23.835 11.5723C23.1821 10.875 22.2559 10.4375 21.2236 10.4375C19.248 10.4375 17.645 12.0405 17.645 14.0127C17.645 14.2964 17.6792 14.5698 17.7373 14.8296C14.7637 14.6895 12.125 13.2607 10.3613 11.1006C10.0503 11.627 9.87598 12.2354 9.87598 12.9019C9.87598 14.146 10.5083 15.2397 11.4688 15.8823C10.8809 15.8618 10.3306 15.7012 9.84863 15.4346V15.479C9.84863 17.2153 11.0791 18.6611 12.7197 18.9893C12.4189 19.0713 12.1011 19.1123 11.7764 19.1123C11.5474 19.1123 11.3286 19.0918 11.1099 19.0508C11.5679 20.4727 12.8872 21.5083 14.4595 21.5356C13.2393 22.4961 11.6875 23.0669 10.0229 23.0669C9.73926 23.0669 9.45557 23.0498 9.17188 23.019C10.7646 24.0342 12.6411 24.6255 14.668 24.6255C21.2476 24.6255 24.8467 19.1738 24.8467 14.4536C24.8467 14.3032 24.8467 14.1494 24.8364 13.9956C25.5337 13.4932 26.1455 12.8608 26.624 12.1431L26.5898 12.126Z" fill="white"/>
</svg>
